<svg height="512pt" viewBox="0 0 512 512" width="512pt" xmlns="http://www.w3.org/2000/svg"><path d="m367.953125 200.023438c.054687-92.832032-75.175781-168.070313-168-168.015626-92.152344-.046874-166.992187 74.222657-167.898437 166.207032l-.054688.058594v1.703124c0 72.96875 46.503906 135.070313 111.550781 158.28125 17.585938 6.269532 36.65625 9.71875 56.457031 9.710938.566407.015625 1.136719.015625 1.695313.015625l.066406-.0625c91.964844-.914063 166.238281-75.753906 166.183594-167.898437zm0 0" fill="#5d9cec"/><path d="m199.953125 32.007812c-4.066406.007813-8.058594.320313-12.050781.601563 87.210937 6.117187 156.089844 78.628906 156.027344 167.414063.0625 89.167968-69.546876 161.921874-157.386719 167.351562 4.449219.359375 8.921875.585938 13.464843.578125.566407.015625 1.136719.015625 1.695313.015625l.066406-.066406c91.964844-.902344 166.238281-75.742188 166.183594-167.886719.054687-92.816406-75.175781-168.054687-168-168.007813zm0 0" fill="#4a89dc"/><path d="m368.078125 390.671875-44.078125-44.078125-.078125-.082031c4.070313-3.359375 8-6.960938 11.832031-10.808594 3.839844-3.757813 7.445313-7.679687 10.804688-11.75l44.082031 44.078125zm0 0" fill="#ccd1d9"/><path d="m390.710938 368.03125 11.28125-11.351562 92.640624 92.71875c12.480469 12.488281 12.488282 32.722656 0 45.195312-12.480468 12.558594-32.722656 12.558594-45.28125.007812l-92.640624-92.640624 11.367187-11.289063 22.554687-22.632813zm0 0" fill="#656d78"/><path d="m390.710938 368.03125-.078126.007812-5.617187 5.632813 92.632813 92.710937c9.480468 9.496094 11.710937 23.449219 6.785156 35.089844 3.703125-1.578125 7.183594-3.832031 10.199218-6.871094 12.488282-12.480468 12.480469-32.714843 0-45.195312l-92.640624-92.71875zm0 0" fill="#434a54"/><path d="m320 192.039062v125.519532c-.398438.402344-.800781.800781-1.207031 1.183594-13.992188 14-29.914063 25.050781-46.792969 33.050781v-159.761719zm0 0" fill="#f6bb42"/><path d="m272 192.03125v159.761719c-62.40625 29.589843-139.199219 18.550781-190.800781-33.039063-.40625-.402344-.808594-.800781-1.207031-1.203125v-125.519531l56 .007812 48-.007812 32.007812.007812h47.992188zm0 0" fill="#ffce54"/><path d="m64.238281 64.207031c74.953125-74.960937 196.554688-74.96875 271.515625 0 71.117188 71.191407 74.796875 184.320313 10.796875 259.753907-3.359375 4.070312-6.957031 7.992187-10.808593 11.75-3.832032 3.839843-7.757813 7.449218-11.832032 10.808593-75.367187 64.089844-188.566406 60.410157-259.679687-10.800781-74.957031-74.957031-74.957031-196.472656.007812-271.511719zm255.761719 253.265625c64.390625-65.664062 63.992188-171.105468-1.207031-236.226562-65.59375-65.679688-172-65.679688-237.59375-.007813-65.199219 65.128907-65.597657 170.5625-1.199219 236.242188v.078125c.40625.410156.808594.808594 1.207031 1.203125 51.59375 51.589843 128.394531 62.628906 190.800781 33.039062 16.871094-8 32.800782-19.046875 46.792969-33.046875.398438-.394531.800781-.792968 1.199219-1.195312zm0 0" fill="#e6e9ed"/><path d="m200 375.984375c-47.015625 0-91.207031-18.304687-124.457031-51.542969-33.238281-33.234375-51.542969-77.433594-51.542969-124.441406 0-47.015625 18.304688-91.214844 51.542969-124.449219 33.25-33.246093 77.441406-51.550781 124.457031-51.550781s91.207031 18.3125 124.457031 51.550781c68.613281 68.625 68.613281 180.273438 0 248.890625-33.25 33.238282-77.441406 51.542969-124.457031 51.542969zm0-335.984375c-42.742188 0-82.921875 16.648438-113.144531 46.863281-30.214844 30.207031-46.855469 70.394531-46.855469 113.136719s16.640625 82.921875 46.855469 113.128906c30.214843 30.214844 70.402343 46.855469 113.144531 46.855469s82.921875-16.640625 113.144531-46.855469c62.382813-62.386718 62.382813-163.882812 0-226.265625-30.222656-30.222656-70.402343-46.863281-113.144531-46.863281zm0 0"/><path d="m200 399.984375c-53.425781 0-103.648438-20.800781-141.425781-58.570313-37.773438-37.765624-58.5664065-88-58.574219-141.421874 0-53.425782 20.808594-103.648438 58.574219-141.417969 37.785156-37.773438 88.011719-58.574219 141.425781-58.574219 53.425781 0 103.648438 20.800781 141.425781 58.574219 77.972657 77.976562 77.972657 204.859375 0 282.832031-37.785156 37.777344-88.011719 58.578125-141.425781 58.578125zm0-383.984375c-49.144531 0-95.351562 19.136719-130.113281 53.886719-34.742188 34.753906-53.886719 80.953125-53.886719 130.105469.007812 49.152343 19.144531 95.359374 53.886719 130.113281 34.746093 34.75 80.960937 53.878906 130.113281 53.878906 49.144531 0 95.351562-19.136719 130.113281-53.878906 71.734375-71.746094 71.734375-188.472657 0-260.210938-34.753906-34.757812-80.960937-53.894531-130.113281-53.894531zm0 0"/><path d="m368.046875 398.671875c-2.046875 0-4.09375-.785156-5.65625-2.34375l-44.0625-44.070313c-3.128906-3.128906-3.128906-8.1875 0-11.3125 3.128906-3.128906 8.183594-3.128906 11.3125 0l44.0625 44.070313c3.128906 3.128906 3.128906 8.183594 0 11.3125-1.558594 1.558594-3.605469 2.34375-5.65625 2.34375zm0 0"/><path d="m390.671875 376.046875c-2.046875 0-4.097656-.78125-5.65625-2.34375l-44.113281-44.117187c-3.125-3.128907-3.125-8.1875 0-11.3125 3.128906-3.128907 8.1875-3.128907 11.3125 0l44.113281 44.117187c3.128906 3.128906 3.128906 8.183594 0 11.3125-1.558594 1.5625-3.609375 2.34375-5.65625 2.34375zm0 0"/><path d="m356.734375 409.984375c-2.046875 0-4.09375-.785156-5.65625-2.34375-3.125-3.128906-3.125-8.183594 0-11.3125l45.25-45.265625c3.128906-3.125 8.183594-3.125 11.3125 0 3.128906 3.128906 3.128906 8.183594 0 11.3125l-45.25 45.265625c-1.558594 1.558594-3.605469 2.34375-5.65625 2.34375zm0 0"/><path d="m449.375 502.625c-2.046875 0-4.09375-.785156-5.65625-2.34375l-92.640625-92.640625c-3.125-3.128906-3.125-8.183594 0-11.3125 3.128906-3.128906 8.1875-3.128906 11.3125 0l92.640625 92.640625c3.128906 3.128906 3.128906 8.183594 0 11.3125-1.558594 1.558594-3.605469 2.34375-5.65625 2.34375zm0 0"/><path d="m494.625 457.382812c-2.050781 0-4.097656-.78125-5.65625-2.34375l-92.640625-92.664062c-3.128906-3.128906-3.128906-8.183594 0-11.3125 3.128906-3.125 8.183594-3.125 11.3125 0l92.640625 92.664062c3.125 3.128907 3.125 8.183594 0 11.3125-1.5625 1.5625-3.609375 2.34375-5.65625 2.34375zm0 0"/><path d="m472.007812 512c-10.6875 0-20.734374-4.167969-28.289062-11.71875-3.125-3.128906-3.125-8.183594 0-11.3125 3.128906-3.128906 8.183594-3.128906 11.3125 0 9.058594 9.0625 24.871094 9.078125 33.929688 0 4.535156-4.527344 7.039062-10.5625 7.039062-16.976562 0-6.40625-2.496094-12.425782-7.023438-16.945313-3.136718-3.125-3.136718-8.183594-.015624-11.3125 3.128906-3.140625 8.199218-3.125 11.3125-.015625 7.558593 7.546875 11.726562 17.585938 11.726562 28.273438s-4.167969 20.734374-11.71875 28.289062c-7.546875 7.550781-17.585938 11.71875-28.273438 11.71875zm0 0"/><path d="m80 325.558594c-4.425781 0-8-3.574219-8-8v-125.558594c0-4.414062 3.574219-8 8-8s8 3.585938 8 8v125.558594c0 4.425781-3.574219 8-8 8zm0 0"/><path d="m320 325.558594c-4.425781 0-8-3.574219-8-8v-125.558594c0-4.414062 3.574219-8 8-8s8 3.585938 8 8v125.558594c0 4.425781-3.574219 8-8 8zm0 0"/><path d="m272 359.816406c-4.425781 0-8-3.578125-8-8v-159.816406c0-4.414062 3.574219-8 8-8s8 3.585938 8 8v159.816406c0 4.414063-3.574219 8-8 8zm0 0"/><path d="m320 200h-240c-4.425781 0-8-3.585938-8-8s3.574219-8 8-8h240c4.425781 0 8 3.585938 8 8s-3.574219 8-8 8zm0 0"/><path d="m216 168c-4.425781 0-8-3.585938-8-8 0-17.648438-14.351562-32-32-32s-32 14.351562-32 32c0 4.414062-3.574219 8-8 8s-8-3.585938-8-8c0-26.472656 21.527344-48 48-48s48 21.527344 48 48c0 4.414062-3.574219 8-8 8zm0 0"/><path d="m136 224c-4.425781 0-8-3.585938-8-8v-56c0-4.414062 3.574219-8 8-8s8 3.585938 8 8v56c0 4.414062-3.574219 8-8 8zm0 0"/><path d="m216 224c-4.425781 0-8-3.585938-8-8v-56c0-4.414062 3.574219-8 8-8s8 3.585938 8 8v56c0 4.414062-3.574219 8-8 8zm0 0"/><path d="m264 168c-4.425781 0-8-3.585938-8-8 0-17.648438-14.351562-32-32-32s-32 14.351562-32 32c0 4.414062-3.574219 8-8 8s-8-3.585938-8-8c0-26.472656 21.527344-48 48-48s48 21.527344 48 48c0 4.414062-3.574219 8-8 8zm0 0"/><path d="m184 200c-4.425781 0-8-3.585938-8-8v-32c0-4.414062 3.574219-8 8-8s8 3.585938 8 8v32c0 4.414062-3.574219 8-8 8zm0 0"/><path d="m264 200c-4.425781 0-8-3.585938-8-8v-32c0-4.414062 3.574219-8 8-8s8 3.585938 8 8v32c0 4.414062-3.574219 8-8 8zm0 0"/></svg>